<svg version="1" xmlns="http://www.w3.org/2000/svg" viewBox="0 0 24 24"><path d="M23.5 10h-.692C21.987 5.548 18.453 2.014 14 1.191V.5a.5.5 0 0 0-.5-.5h-3a.5.5 0 0 0-.5.5v.691C5.547 2.014 2.012 5.548 1.19 10H.5a.5.5 0 0 0-.5.5v3a.5.5 0 0 0 .5.5h.69c.823 4.454 4.357 7.988 8.81 8.809v.691a.5.5 0 0 0 .5.5h3a.5.5 0 0 0 .5-.5v-.691c4.453-.821 7.986-4.356 8.808-8.809h.692a.5.5 0 0 0 .5-.5v-3a.5.5 0 0 0-.5-.5zm-1.708 0h-4.674A5.522 5.522 0 0 0 14 6.882V2.208A10.036 10.036 0 0 1 21.792 10zM12 16.5c-2.481 0-4.5-2.019-4.5-4.5S9.519 7.5 12 7.5s4.5 2.019 4.5 4.5-2.019 4.5-4.5 4.5zM13 1v5.596c-.325-.06-.658-.096-1-.096s-.675.036-1 .096V1h2zm-3 1.208v4.674A5.522 5.522 0 0 0 6.882 10H2.207A10.037 10.037 0 0 1 10 2.208zM1 11h5.596c-.06.325-.096.658-.096 1s.036.675.096 1H1v-2zm1.207 3h4.675A5.522 5.522 0 0 0 10 17.118v4.674A10.032 10.032 0 0 1 2.207 14zM11 23v-5.596c.325.06.658.096 1 .096s.675-.036 1-.096V23h-2zm3-1.208v-4.674A5.522 5.522 0 0 0 17.118 14h4.674A10.03 10.03 0 0 1 14 21.792zM23 13h-5.596c.06-.325.096-.658.096-1s-.036-.675-.096-1H23v2z"></path></svg>