<svg xmlns="http://www.w3.org/2000/svg" xmlns:xlink="http://www.w3.org/1999/xlink" version="1.1" x="0px" y="0px" viewBox="0 0 24 30" style="enable-background:new 0 0 24 24;" xml:space="preserve"><g><path d="M6.177,1.239c-0.998,0-1.811,0.812-1.811,1.81v17.9c0,0.998,0.812,1.811,1.811,1.811h11.646c0.998,0,1.81-0.812,1.81-1.811   V7.493c0-0.483-0.188-0.938-0.53-1.28L14.661,1.77c-0.342-0.342-0.797-0.53-1.28-0.53H6.177z M14.328,2.387l4.158,4.158h-3.315   c-0.465,0-0.843-0.378-0.843-0.843V2.387z M15.171,7.218h3.753c0.022,0.089,0.037,0.18,0.037,0.275V20.95   c0,0.628-0.51,1.138-1.138,1.138H6.177c-0.628,0-1.138-0.511-1.138-1.138V3.05c0-0.628,0.511-1.138,1.138-1.138h7.204   c0.094,0,0.185,0.015,0.274,0.037v3.753C13.655,6.538,14.335,7.218,15.171,7.218z"/><path d="M16.262,13.562H7.738c-0.186,0-0.336,0.15-0.336,0.336c0,0.186,0.15,0.336,0.336,0.336h8.523   c0.186,0,0.336-0.15,0.336-0.336C16.598,13.712,16.448,13.562,16.262,13.562z"/><path d="M7.402,10.55c0,0.186,0.15,0.336,0.336,0.336h8.523c0.186,0,0.336-0.15,0.336-0.336s-0.15-0.336-0.336-0.336H7.738   C7.553,10.214,7.402,10.365,7.402,10.55z"/><path d="M16.262,16.909H7.738c-0.186,0-0.336,0.15-0.336,0.336s0.15,0.336,0.336,0.336h8.523c0.186,0,0.336-0.15,0.336-0.336   S16.448,16.909,16.262,16.909z"/></g><text x="0" y="39" fill="#000000" font-size="5px" font-weight="bold" font-family="'Helvetica Neue', Helvetica, Arial-Unicode, Arial, Sans-serif">Created by AlePio</text><text x="0" y="44" fill="#000000" font-size="5px" font-weight="bold" font-family="'Helvetica Neue', Helvetica, Arial-Unicode, Arial, Sans-serif">from the Noun Project</text></svg>