<svg xmlns="http://www.w3.org/2000/svg" xmlns:xlink="http://www.w3.org/1999/xlink" version="1.1" x="0px" y="0px" viewBox="0 0 100 125" enable-background="new 0 0 100 100" xml:space="preserve"><path d="M64.2,73.8h-22c-0.8,0-1.5,0.7-1.5,1.5c0,0.8,0.7,1.5,1.5,1.5h22c0.8,0,1.5-0.7,1.5-1.5    C65.7,74.5,65,73.8,64.2,73.8z"/><path d="M90.7,56.2H88V33.7c0-4.5-3.6-8.1-8.1-8.1H26.4c-4.5,0-8.1,3.6-8.1,8.1V40h-7.1c-2.7,0-4.8,2.2-4.8,4.8    v28.7c0,2.7,2.2,4.8,4.8,4.8h16.2c2.7,0,4.8-2.2,4.8-4.8V72h47.7v2.8c0,1.7,1.3,3.1,2.9,3.1h7.9c1.6,0,2.9-1.4,2.9-3.1V59.2    C93.5,57.5,92.2,56.2,90.7,56.2z M21,76.3C20.8,76.7,20.5,77,20,77h-2.1c-0.4,0-0.8-0.3-0.9-0.7c0-0.1-0.1-0.2-0.1-0.3    c0-0.6,0.4-1,1-1H20c0.6,0,1,0.4,1,1C21,76.1,21,76.2,21,76.3z M30.2,70v2v1.5c0,0,0,0,0,0H8.3c0,0,0,0,0,0V44.8    c0-1.6,1.3-2.8,2.8-2.8h7.1h2h7c1.6,0,2.8,1.3,2.8,2.8V70z M79.9,59.2V70H32.2V44.8c0-2.7-2.2-4.8-4.8-4.8h-7v-6.2    c0-3.4,2.7-6.1,6.1-6.1h53.5c3.4,0,6.1,2.7,6.1,6.1v22.4h-3.3C81.2,56.2,79.9,57.5,79.9,59.2z M87.4,75.9    c-0.1,0.1-0.2,0.2-0.4,0.2h-0.5c-0.2,0-0.3-0.1-0.4-0.2c0-0.1-0.1-0.2-0.1-0.3c0-0.3,0.2-0.5,0.5-0.5H87c0.3,0,0.5,0.2,0.5,0.5    C87.5,75.7,87.4,75.8,87.4,75.9z M91.5,73.8h-9.6v-2v-2.1V60H86h2h3.5V73.8z"/></svg>