<svg xmlns="http://www.w3.org/2000/svg" xmlns:xlink="http://www.w3.org/1999/xlink" version="1.1" x="0px" y="0px" viewBox="0 0 100 125" style="enable-background:new 0 0 100 100;" xml:space="preserve"><path d="M50,5C25.2,5,5,25.2,5,50s20.2,45,45,45s45-20.2,45-45S74.8,5,50,5z M50,7c11.5,0,21.9,4.5,29.7,11.9L67.3,31.3  c-4.5-4.2-10.6-6.8-17.3-6.8s-12.7,2.6-17.3,6.8L20.3,18.9C28.1,11.5,38.5,7,50,7z M73.4,50c0,12.9-10.5,23.4-23.4,23.4  S26.6,62.9,26.6,50S37.1,26.6,50,26.6S73.4,37.1,73.4,50z M7,50c0-11.5,4.5-21.9,11.9-29.7l12.4,12.4c-4.2,4.5-6.8,10.6-6.8,17.3  s2.6,12.7,6.8,17.3L18.9,79.7C11.5,71.9,7,61.5,7,50z M50,93c-11.5,0-21.9-4.5-29.7-11.9l12.4-12.4c4.5,4.2,10.6,6.8,17.3,6.8  s12.7-2.6,17.3-6.8l12.4,12.4C71.9,88.5,61.5,93,50,93z M81.1,79.7L68.7,67.3c4.2-4.5,6.8-10.6,6.8-17.3s-2.6-12.7-6.8-17.3  l12.4-12.4C88.5,28.1,93,38.5,93,50S88.5,71.9,81.1,79.7z"/><text x="0" y="115" fill="#fff" font-size="5px" font-weight="bold" font-family="'Helvetica Neue', Helvetica, Arial-Unicode, Arial, Sans-serif">Created by Designify.me</text><text x="0" y="120" fill="#fff" font-size="5px" font-weight="bold" font-family="'Helvetica Neue', Helvetica, Arial-Unicode, Arial, Sans-serif">from the Noun Project</text></svg>