<svg xmlns:dc="http://purl.org/dc/elements/1.1/" xmlns:cc="http://creativecommons.org/ns#" xmlns:rdf="http://www.w3.org/1999/02/22-rdf-syntax-ns#" xmlns:svg="http://www.w3.org/2000/svg" xmlns="http://www.w3.org/2000/svg" xmlns:sodipodi="http://sodipodi.sourceforge.net/DTD/sodipodi-0.dtd" xmlns:inkscape="http://www.inkscape.org/namespaces/inkscape" version="1.1" x="0px" y="0px" viewBox="0 0 100 125"><g transform="translate(0,-952.36218)"><path style="font-size:medium;font-style:normal;font-variant:normal;font-weight:normal;font-stretch:normal;text-indent:0;text-align:start;text-decoration:none;line-height:normal;letter-spacing:normal;word-spacing:normal;text-transform:none;direction:ltr;block-progression:tb;writing-mode:lr-tb;text-anchor:start;baseline-shift:baseline;opacity:1;color:#000000;fill-opacity:1;stroke:none;stroke-width:2;marker:none;visibility:visible;display:inline;overflow:visible;enable-background:accumulate;font-family:Sans;-inkscape-font-specification:Sans" d="M 50 7 C 26.26366 7 7 26.26364 7 50 C 7 73.7363 26.26366 93 50 93 C 73.73634 93 93 73.7363 93 50 C 93 26.26364 73.73634 7 50 7 z M 50 9 C 72.655454 9 91 27.34453 91 50 C 91 72.6554 72.655454 91 50 91 C 27.344546 91 9 72.6554 9 50 C 9 27.34453 27.344546 9 50 9 z M 37 35 C 34.250439 35 32 37.25044 32 40 C 32 42.74964 34.25047 45 37 45 C 39.749532 45 42 42.74964 42 40 C 42 37.25044 39.749562 35 37 35 z M 63 35 C 60.250438 35 58 37.25044 58 40 C 58 42.74964 60.250468 45 63 45 C 65.74953 45 68 42.74964 68 40 C 68 37.25044 65.749561 35 63 35 z M 37 37 C 38.66864 37 40 38.33136 40 40 C 40 41.66876 38.66867 43 37 43 C 35.331332 43 34 41.66876 34 40 C 34 38.33136 35.331363 37 37 37 z M 63 37 C 64.668637 37 66 38.33136 66 40 C 66 41.66876 64.668668 43 63 43 C 61.33133 43 60 41.66876 60 40 C 60 38.33136 61.33136 37 63 37 z M 32.9375 63.96875 A 1.0001 1.0001 0 0 0 32.1875 65.59375 C 33.837781 67.79405 36.615356 69.8215 39.8125 71.375 C 43.009644 72.9285 46.6366 74 50 74 C 53.363399 74 56.990356 72.9285 60.1875 71.375 C 63.384644 69.8215 66.162219 67.79405 67.8125 65.59375 A 1.01564 1.01564 0 0 0 66.1875 64.375 C 64.837781 66.1746 62.28944 68.14715 59.3125 69.59375 C 56.33556 71.04025 52.940372 72 50 72 C 47.059628 72 43.66444 71.04025 40.6875 69.59375 C 37.71056 68.14715 35.162219 66.1746 33.8125 64.375 A 1.0001 1.0001 0 0 0 32.9375 63.96875 z " transform="translate(0,952.36218)"/></g><text x="0" y="115" fill="#fff" font-size="5px" font-weight="bold" font-family="'Helvetica Neue', Helvetica, Arial-Unicode, Arial, Sans-serif">Created by romzicon</text><text x="0" y="120" fill="#fff" font-size="5px" font-weight="bold" font-family="'Helvetica Neue', Helvetica, Arial-Unicode, Arial, Sans-serif">from the Noun Project</text></svg>