<svg xmlns="http://www.w3.org/2000/svg" xmlns:xlink="http://www.w3.org/1999/xlink" version="1.1" x="0px" y="0px" viewBox="0 0 100 125" enable-background="new 0 0 100 100" xml:space="preserve"><g><g><g><path d="M77.3,62.1c-2.9,6.6-8,11.8-14.5,14.8l6.6,2.9l-1.6,3.7l-12.5-5.5l5.6-12.5l3.7,1.6l-2.6,5.9c5.2-2.7,9.3-7,11.8-12.4     c2.8-6.3,3-13.2,0.5-19.6c-3.8-9.8-13.4-16.5-24-16.5v-4c12.2,0,23.3,7.6,27.7,19C80.7,46.8,80.5,54.9,77.3,62.1z"/></g></g><g><g><path stroke="#000000" stroke-width="4" stroke-miterlimit="10" d="M75.7,40"/></g><g><path d="M50.2,79.6h-0.3c-12.2,0-23.3-7.6-27.7-19c-5.6-14.6,1.1-31,15.1-37.5l-6.6-2.9l1.6-3.7l12.5,5.6l-5.6,12.5L35.5,33     l2.6-5.8c-11.5,5.9-17,19.7-12.3,32c3.8,9.9,13.4,16.5,24,16.5h0.3L50.2,79.6z"/></g></g></g><text x="0" y="115" fill="#fff" font-size="5px" font-weight="bold" font-family="'Helvetica Neue', Helvetica, Arial-Unicode, Arial, Sans-serif">Created by Sumana Chamrunworakiat</text><text x="0" y="120" fill="#fff" font-size="5px" font-weight="bold" font-family="'Helvetica Neue', Helvetica, Arial-Unicode, Arial, Sans-serif">from the Noun Project</text></svg>